<svg fill="none" height="644" width="1001" xmlns="http://www.w3.org/2000/svg" xmlns:xlink="http://www.w3.org/1999/xlink"><linearGradient id="a"><stop offset="0"/><stop offset="1" stop-opacity="0"/></linearGradient><linearGradient id="b" gradientUnits="userSpaceOnUse" x1="996.12" x2="996.12" xlink:href="#a" y1="79.284" y2="164.563"/><linearGradient id="c" gradientUnits="userSpaceOnUse" x1="350.139" x2="272.849" xlink:href="#a" y1="93.942" y2="93.942"/><path d="m64.337 643.292c-9.056 0-17.433-1.585-25.131-4.754-7.585-3.169-14.264-7.583-20.037-13.242s-10.245-12.223-13.414-19.693c-3.17-7.583-4.755-15.732-4.755-24.447 0-8.828 1.585-16.977 4.755-24.446 3.17-7.47 7.584-13.978 13.244-19.524 5.66-5.659 12.283-10.016 19.867-13.072 7.698-3.169 16.075-4.754 25.132-4.754 8.943 0 17.206 1.585 24.791 4.754 7.698 3.056 14.377 7.413 20.037 13.072 5.773 5.546 10.245 12.11 13.414 19.693 3.17 7.47 4.755 15.619 4.755 24.447 0 8.715-1.585 16.864-4.755 24.447-3.169 7.47-7.584 14.034-13.244 19.693-5.66 5.546-12.34 9.903-20.037 13.072-7.585 3.169-15.792 4.754-24.622 4.754zm-.34-24.277c7.132 0 13.359-1.585 18.679-4.754 5.434-3.169 9.622-7.583 12.566-13.242 2.943-5.772 4.414-12.393 4.414-19.863 0-5.659-.849-10.752-2.547-15.279-1.698-4.64-4.131-8.601-7.301-11.884-3.17-3.395-6.962-5.942-11.377-7.639-4.302-1.811-9.113-2.717-14.433-2.717-7.132 0-13.415 1.585-18.849 4.754-5.32 3.056-9.452 7.413-12.395 13.072-2.944 5.546-4.415 12.11-4.415 19.693 0 5.659.849 10.809 2.547 15.449 1.698 4.641 4.075 8.659 7.131 12.054 3.17 3.282 6.962 5.829 11.377 7.64 4.415 1.81 9.283 2.716 14.604 2.716zm79.921 22.24v-119.857h26.66v119.857zm74.205 0v-119.857h26.829v119.857zm-58.243-50.082v-23.089h67.073v23.089zm140.411 50.082v-119.857h19.018l47.206 73.51h-9.679l47.036-73.51h19.188v119.857h-26.659v-74.869l4.754 1.189-30.735 47.875h-17.659l-30.565-47.875 4.585-1.189v74.869zm182.608-44.65-46.187-75.207h30.904l35.489 60.777h-19.867l35.489-60.777h30.226l-46.527 75.207zm-3.227 44.65v-56.873h26.66v56.873zm130.633 1.867c-7.584 0-14.207-1.358-19.867-4.074-5.547-2.83-10.301-6.735-14.263-11.714l17.829-17.147c2.038 2.829 4.415 4.98 7.132 6.451 2.83 1.471 6 2.207 9.509 2.207 3.396 0 6.339-.679 8.83-2.037 2.49-1.471 4.471-3.509 5.943-6.112 1.471-2.716 2.207-6.055 2.207-10.016v-79.282h26.829v77.754c0 8.941-1.811 16.694-5.433 23.258-3.623 6.565-8.717 11.658-15.283 15.279-6.566 3.622-14.377 5.433-23.433 5.433zm122.638.17c-9.057 0-17.434-1.585-25.132-4.754-7.584-3.169-14.263-7.583-20.036-13.242-5.774-5.659-10.245-12.223-13.415-19.693-3.17-7.583-4.755-15.732-4.755-24.447 0-8.828 1.585-16.977 4.755-24.446 3.17-7.47 7.585-13.978 13.245-19.524 5.66-5.659 12.282-10.016 19.867-13.072 7.698-3.169 16.075-4.754 25.131-4.754 8.943 0 17.207 1.585 24.791 4.754 7.698 3.056 14.377 7.413 20.037 13.072 5.774 5.546 10.245 12.11 13.415 19.693 3.17 7.47 4.754 15.619 4.754 24.447 0 8.715-1.584 16.864-4.754 24.447-3.17 7.47-7.585 14.034-13.245 19.693-5.66 5.546-12.339 9.903-20.037 13.072-7.584 3.169-15.792 4.754-24.621 4.754zm-.34-24.277c7.132 0 13.358-1.585 18.678-4.754 5.434-3.169 9.623-7.583 12.566-13.242 2.943-5.772 4.415-12.393 4.415-19.863 0-5.659-.849-10.752-2.547-15.279-1.698-4.64-4.132-8.601-7.302-11.884-3.169-3.395-6.962-5.942-11.377-7.639-4.301-1.811-9.113-2.717-14.433-2.717-7.132 0-13.415 1.585-18.848 4.754-5.321 3.056-9.453 7.413-12.396 13.072-2.943 5.546-4.415 12.11-4.415 19.693 0 5.659.849 10.809 2.547 15.449 1.698 4.641 4.075 8.659 7.132 12.054 3.17 3.282 6.962 5.829 11.377 7.64 4.415 1.81 9.282 2.716 14.603 2.716zm100.297 22.24v-20.712h28.188c5.207 0 9.283-1.528 12.226-4.584s4.415-6.791 4.415-11.205c0-3.056-.679-5.772-2.038-8.149-1.358-2.376-3.283-4.244-5.773-5.602-2.377-1.358-5.321-2.037-8.83-2.037h-28.188v-20.203h25.981c4.414 0 7.98-1.075 10.697-3.225 2.717-2.264 4.076-5.659 4.076-10.187 0-4.414-1.359-7.696-4.076-9.846-2.717-2.264-6.283-3.396-10.697-3.396h-25.981v-20.711h31.075c7.698 0 14.207 1.414 19.527 4.244 5.434 2.829 9.566 6.621 12.396 11.374 2.83 4.754 4.245 10.017 4.245 15.789 0 7.357-2.377 13.581-7.132 18.675-4.754 5.093-11.773 8.601-21.055 10.525l.679-8.998c10.075 1.925 17.829 5.829 23.263 11.715 5.547 5.885 8.32 13.128 8.32 21.73 0 6.564-1.641 12.506-4.924 17.826-3.17 5.206-7.811 9.337-13.924 12.393-6 3.056-13.245 4.584-21.735 4.584zm-20.376 0v-119.857h26.32v119.857zm142.458 1.867c-9.849 0-18.339-1.584-25.471-4.753-7.018-3.283-13.471-8.206-19.357-14.77l17.32-17.147c3.849 4.414 8.094 7.866 12.735 10.356 4.754 2.377 10.245 3.565 16.471 3.565 5.66 0 10.018-1.019 13.075-3.056 3.17-2.037 4.754-4.867 4.754-8.488 0-3.282-1.018-5.942-3.056-7.979-2.038-2.038-4.755-3.792-8.151-5.263-3.283-1.472-6.962-2.886-11.037-4.244a171.59 171.59 0 0 1 -11.886-4.584 57.125 57.125 0 0 1 -11.038-6.621c-3.282-2.717-5.943-6.055-7.98-10.017-2.038-4.074-3.057-9.167-3.057-15.279 0-7.356 1.755-13.695 5.264-19.014 3.623-5.319 8.604-9.337 14.943-12.054 6.339-2.829 13.641-4.244 21.905-4.244 8.377 0 16.018 1.472 22.923 4.414 7.019 2.943 12.792 6.961 17.321 12.054l-17.321 17.146c-3.622-3.734-7.301-6.507-11.037-8.318-3.623-1.811-7.754-2.717-12.396-2.717-4.641 0-8.32.906-11.037 2.717-2.717 1.697-4.075 4.187-4.075 7.47 0 3.055 1.018 5.545 3.056 7.469 2.038 1.811 4.698 3.396 7.981 4.754a235.167 235.167 0 0 0 11.037 4.074 121.179 121.179 0 0 1 12.056 4.754 45.58 45.58 0 0 1 10.868 6.961c3.396 2.716 6.113 6.224 8.15 10.525 2.038 4.188 3.058 9.394 3.058 15.619 0 11.431-4.076 20.429-12.227 26.993-8.151 6.451-19.414 9.677-33.791 9.677z" fill="#2c3131"/><path clip-rule="evenodd" d="m428.495 214.798c0 118.114-95.757 213.864-213.881 213.864-118.123 0-213.88-95.75-213.88-213.864s95.756-213.864 213.88-213.864c51.326 0 98.429 18.077 135.289 48.212v-47.146h90.567l122.954 198.123 113.815-198.123h89.246v273.221c0 41.292 33.477 74.766 74.772 74.766h6.64c41.295 0 74.771-33.474 74.771-74.766v-195.58h-99.795v-77.641h178.127v273.221c0 84.55-68.547 153.091-153.103 153.091h-6.64c-84.557 0-153.103-68.541-153.103-153.091v-134.97l-86.494 150.563c-16.107 28.039-56.317 28.722-73.368 1.247l-100.058-161.228v73.311c.174 3.53.261 7.082.261 10.654zm-78.623 0c0 74.695-60.557 135.248-135.258 135.248s-135.258-60.553-135.258-135.248 60.557-135.247 135.258-135.247 135.258 60.552 135.258 135.247z" fill="#2c3131" fill-rule="evenodd"/><ellipse cx="215.208" cy="214.796" fill="#21c3c3" rx="51.167" ry="51.163"/><path d="m1001 115.095v49.842h-78.332v-85.28h41.539c19.235 1.4 34.694 16.407 36.793 35.438z" fill="url(#b)" opacity=".3"/><path d="m349.872 49.41c-22.347-18.294-48.471-32.15-77.023-40.217v83.427c44.433 21.209 75.481 65.944 77.023 118.085z" fill="url(#c)" opacity=".3"/></svg>